<?xml version="1.0" encoding="UTF-8"?>
<svg id="Layer_1" data-name="Layer 1" xmlns="http://www.w3.org/2000/svg" xmlns:xlink="http://www.w3.org/1999/xlink" viewBox="0 0 100 100">
  <defs>
    <linearGradient id="linear-gradient" x1="14.08" y1="4.85" x2="158.08" y2="185.84" gradientUnits="userSpaceOnUse">
      <stop offset="0" stop-color="#b8ff5c"/>
      <stop offset="1" stop-color="#6affd3"/>
    </linearGradient>
  </defs>
  <rect x="0" y="0" width="100" height="100" style="fill: url(#linear-gradient);"/>
  <g>
    <path d="m23.64,32.12l4.08,10.98,12.7,34.13c1.22,3.29,3.92,5.94,7.35,6.69,2.87.63,5.68-.03,7.88-1.56,1.64-1.16,2.93-2.79,3.66-4.75l20.78-56.72h0c-9.14,0-17.27,5.79-20.26,14.42l-9.99,28.83-5.97-17.58c-1.95-5.7-6.16-10.17-11.43-12.55-2.71-1.22-5.69-1.89-8.79-1.89Z" style="fill: #0f1f35;"/>
    <g style="opacity: .99;">
      <path d="m28.74,34.29c-.56,1.52-1.72,2.46-2.9,3.38-1.28,1.01-2.86,1.7-3.47,2.99-.4,1.7.64,3.17,1.9,4.22,1.21,1.01,2.68,1.5,4.37,1.05,1.33-.35,2.8-1.02,3.86-2.74.62-.78.38-2.81-.25-4.67-.6-1.76-1.4-3.5-1.62-4.35,0,0-1.13-.31-1.89.13Z" style="fill: #ff2caa;"/>
      <path d="m28.16,32.36c-1.62-.02-2.97-.75-4.24-1.55-1.38-.87-2.64-1.92-4.06-2.06-1.73.18-2.78,1.58-3.36,3.12s-.68,3.14.31,4.58c.77,1.13,2.05,2.19,4.03,2.62.95.33,2.68-.72,4.22-1.93,1.46-1.16,2.85-2.49,3.57-2.98,0,0,.19-1.23-.48-1.8Z" style="fill: #ff2caa;"/>
      <path d="m29.76,31.43c-.44-1.56.05-3.02.46-4.46.44-1.57.92-3.18.65-4.58-.67-1.61-2.37-2.43-4.01-2.54-1.57-.11-3.1.59-4.2,1.95-.86,1.07-1.18,2.48-1.03,4.5-.04,1,.96,2.42,2.57,3.55,1.53,1.07,3.31,1.87,3.99,2.43,0,0,1.22-.04,1.57-.84Z" style="fill: #ff2caa;"/>
      <path d="m31.03,32.87c1.38-.85,2.95-1.53,4.45-1.53,1.63,0,3.08.24,4.35-.4,1.37-1.08,1.73-2.56,1.39-4.17s-1.16-3.02-2.76-3.71c-1.26-.54-2.87-.62-4.78.07-.98.23-1.99,1.89-2.64,3.74-.62,1.76-.83,3.73-1.17,4.53,0,0,.29,1.32,1.16,1.45Z" style="fill: #ff2caa;"/>
      <path d="m30.55,34.15c1.28,1.01,1.84,2.41,2.35,3.81.57,1.53,1.1,2.8,2.14,3.77,1.31.72,5.08,1.7,6.23-1.57,1.26-1.58.92-4.55-.64-6.35-1.27-1.46-3.48-1.99-6.19-1.11-2.55.16-3.34-.74-3.9,1.45Z" style="fill: #ff2caa;"/>
      <path d="m31.42,30.76c-2.86-2.38-6.69,1.96-3.74,4.94,2.83,1.63,6.55-2.37,3.74-4.94Z" style="fill: #0f1f35;"/>
    </g>
    <g style="opacity: .99;">
      <path d="m64.77,63.52c.43-1.4,1.44-2.29,2.46-3.18,1.1-.97,2.21-1.76,2.69-2.95.28-1.55-.69-2.42-1.88-3.31s-2.12-1.13-3.62-.64c-1.18.38-2.24.87-3.11,2.48-.52.74-.53,2.32.14,3.96.63,1.56,1.04,3.22,1.28,3.98,0,0,1.38.11,2.04-.33Z" style="fill: #c24dff;"/>
      <path d="m65.37,65.42c1.46-.1,2.57.62,3.77,1.25,1.3.69,2.72,1.31,4.01,1.34,1.55-.29,2.02-1.86,2.43-3.29s.57-2.64-.42-3.87c-.78-.97-1.77-2.34-3.58-2.59-.88-.23-2.22,1.44-3.52,2.64-1.24,1.15-2.4,2.47-3.01,2.96,0,0-.32,1.09.32,1.55Z" style="fill: #c24dff;"/>
      <path d="m64.12,66.15c.54,1.36.18,2.73-.05,4.06-.25,1.45-.81,3.06-.44,4.3.75,1.38,2.64,1.68,4.12,1.63s2.99-.49,3.86-1.81c.68-1.04.65-2.52.33-4.32-.05-.9-1.29-1.86-2.84-2.73-1.47-.82-3.06-1.55-3.72-1.98,0,0-1.01.1-1.26.85Z" style="fill: #c24dff;"/>
      <path d="m62.87,65.14c-1.19.84-2.64,1.57-3.99,1.65-1.47.09-2.92-.44-4.03.21-1.17,1.05-1.36,2.57-.97,4s1.29,2.57,2.78,3.1c1.17.42,2.53.29,4.21-.44.87-.26,2.14-1.53,2.62-3.24.46-1.62.41-3.42.68-4.17,0,0-.51-1.05-1.29-1.12Z" style="fill: #c24dff;"/>
      <path d="m62.96,63.83c-1.24-.79-1.35-2.23-1.93-3.44-.64-1.32-1.76-1.96-2.79-2.74-1.24-.54-4.76-1.43-5.5,1.6-.99,1.54-.32,4.35,1.24,5.83,1.27,1.2,3.52,1.76,5.87.73,2.28-.37,2.8.04,3.1-1.98Z" style="fill: #c24dff;"/>
      <path d="m62.63,66.91c2.79,1.87,5.83-2.38,2.9-4.78-2.7-1.2-5.66,2.74-2.9,4.78Z" style="fill: #0f1f35;"/>
    </g>
  </g>
</svg>